<?xml version="1.0" encoding="UTF-8"?>
<svg width="11px" height="14px" viewBox="0 0 11 14" version="1.1" xmlns="http://www.w3.org/2000/svg" xmlns:xlink="http://www.w3.org/1999/xlink">
    <!-- Generator: Sketch 53.1 (72631) - https://sketchapp.com -->
    <title>icon-style-bold</title>
    <desc>Created with Sketch.</desc>
    <g id="icon-style-bold" stroke="none" stroke-width="1" fill="none" fill-rule="evenodd">
        <path d="M9.14964285,6.45597826 C9.80964285,5.79021739 10.2142857,4.89048912 10.2142857,3.9013587 L10.2142857,3.70733695 C10.2142857,1.66059783 8.48375,0 6.35053571,0 L0.538214291,0 C0.241607145,0 0,0.233967394 0,0.521195657 L0,13.4388587 C0,13.748913 0.259285709,14 0.579464291,14 L6.83964285,14 C9.13785715,14 11,12.2081522 11,9.99592392 L11,9.78668478 C11,8.39809783 10.2653571,7.175 9.14964285,6.45597826 Z M1.88571429,1.82608696 L6.29946429,1.82608696 C7.42107144,1.82608696 8.32857144,2.67065218 8.32857144,3.71494565 L8.32857144,3.89565218 C8.32857144,4.93804347 7.41910715,5.78451087 6.29946429,5.78451087 L1.88571429,5.78451087 L1.88571429,1.82608696 Z M9.08678571,9.99402174 C9.08678571,11.1904891 8.07125,12.1605978 6.81803571,12.1605978 L1.88571429,12.1605978 L1.88571429,7.62201087 L6.81803571,7.62201087 C8.07125,7.62201087 9.08678571,8.59211956 9.08678571,9.78858696 L9.08678571,9.99402174 Z" fill="#999999" fill-rule="nonzero"></path>
    </g>
</svg>