<?xml version="1.0" encoding="UTF-8"?>
<svg width="40px" height="40px" viewBox="0 0 40 40" version="1.1" xmlns="http://www.w3.org/2000/svg" xmlns:xlink="http://www.w3.org/1999/xlink">
    <!-- Generator: Sketch 53.1 (72631) - https://sketchapp.com -->
    <title>icon-sticker</title>
    <desc>Created with Sketch.</desc>
    <g id="Page-1" stroke="none" stroke-width="1" fill="none" fill-rule="evenodd">
        <g id="index" transform="translate(-235.000000, -598.000000)" fill="#1E3063" fill-rule="nonzero">
            <path d="M273.5,598 L236.5,598 C235.671573,598 235,598.704102 235,599.572657 L235,636.427343 C235,637.29545 235.672,638 236.5,638 L273.5,638 C274.328427,638 275,637.295898 275,636.427343 L275,599.572657 C275,598.704102 274.328427,598 273.5,598 L273.5,598 Z M272,601.145313 L272,624.835815 L264.91,618.574544 C264.337215,618.068287 263.495781,618.083513 262.94,618.610191 L257.648,623.615433 L245.858,611.849864 C245.287886,611.278546 244.392658,611.269371 243.812,611.828895 L238,617.40239 L238,601.145313 L272,601.145313 Z M238,634.854687 L238,621.432585 C238.218295,621.371043 238.420166,621.257686 238.59,621.101279 L244.802,615.141958 L256.584,626.89914 C257.150914,627.467647 258.040403,627.48046 258.622,626.928497 L263.976,621.866639 L271.764,628.740197 C271.836,628.803103 271.92,628.836653 272,628.882785 L272,634.856783 L238,634.856783 L238,634.854687 Z M262.014,615.370518 C264.84,615.370518 267.14,612.961208 267.14,609.998322 C267.14,607.035437 264.842,604.626127 262.014,604.626127 C259.19,604.626127 256.892,607.035437 256.892,609.998322 C256.892,612.961208 259.19,615.370518 262.014,615.370518 Z M262.014,607.773537 C263.186,607.773537 264.14,608.77165 264.14,610.000419 C264.14,611.229189 263.186,612.227301 262.014,612.227301 C260.876769,612.175547 259.980195,611.193858 259.980195,610.000419 C259.980195,608.806981 260.876769,607.825291 262.014,607.773537 L262.014,607.773537 Z" id="icon-sticker"></path>
        </g>
    </g>
</svg>