<?xml version="1.0" encoding="UTF-8"?>
<svg width="17px" height="18px" viewBox="0 0 17 18" version="1.1" xmlns="http://www.w3.org/2000/svg" xmlns:xlink="http://www.w3.org/1999/xlink">
    <!-- Generator: Sketch 53.1 (72631) - https://sketchapp.com -->
    <title>icon-style-shadow</title>
    <desc>Created with Sketch.</desc>
    <g id="icon-style-shadow" stroke="none" stroke-width="1" fill="none" fill-rule="evenodd">
        <path d="M13,0 L13,3 L8,3 L8,15 L4.99999999,15 L4.99999999,3 L0,3 L0,0 L13,0 Z M11,4.00000001 L11,6 L9,6 L9,4.00000001 L11,4.00000001 Z M14,4.00000001 L14,6 L12,6 L12,4.00000001 L14,4.00000001 Z M17,4.00000001 L17,6 L15,6 L15,4.00000001 L17,4.00000001 Z M11,7.00000001 L11,9 L9,9 L9,7.00000001 L11,7.00000001 Z M11,10 L11,12 L9,12 L9,10 L11,10 Z M11,13 L11,15 L9,15 L9,13 L11,13 Z M9,16 L11,16 L11,18 L9,18 L9,16 Z" fill="#999999" fill-rule="nonzero"></path>
    </g>
</svg>