<?xml version="1.0" encoding="UTF-8"?>
<svg width="40px" height="40px" viewBox="0 0 40 40" version="1.1" xmlns="http://www.w3.org/2000/svg" xmlns:xlink="http://www.w3.org/1999/xlink">
    <!-- Generator: Sketch 53.1 (72631) - https://sketchapp.com -->
    <title>icon-text</title>
    <desc>Created with Sketch.</desc>
    <g id="Page-1" stroke="none" stroke-width="1" fill="none" fill-rule="evenodd">
        <g id="index" transform="translate(-102.000000, -598.000000)" fill="#1E3063" fill-rule="nonzero">
            <path d="M133.321753,627.776186 L132.635217,627.776186 L122.968091,604.316468 C122.792919,603.92734 122.405854,603.6771 121.979131,603.6771 C121.552408,603.6771 121.165343,603.92734 120.990171,604.316468 L111.366497,627.776186 L110.636509,627.776186 C110.207207,627.776186 109.819618,627.991716 109.691001,628.377583 C109.548775,628.710457 109.582869,629.092464 109.781796,629.394888 C109.980722,629.697311 110.317991,629.879879 110.679961,629.881077 L113.773719,629.881077 C114.289925,629.881077 114.762679,629.536925 114.847844,629.022434 C114.888152,628.754768 114.820263,628.482065 114.659166,628.264542 C114.49807,628.04702 114.257018,627.902571 113.989239,627.863093 L115.965421,623.093628 L124.643587,623.093628 L126.534603,627.863093 C125.979018,627.948854 125.596052,628.465958 125.675998,629.022434 C125.761164,629.538663 126.233918,629.881077 126.750123,629.881077 L133.323491,629.881077 C133.752793,629.881077 134.140382,629.665547 134.268999,629.27968 C134.428921,628.95485 134.408928,628.570314 134.216183,628.263821 C134.023438,627.957329 133.685525,627.772743 133.323491,627.776186 L133.321753,627.776186 Z M116.695409,620.945283 L120.21847,612.351904 L123.74153,620.945283 L116.695409,620.945283 L116.695409,620.945283 Z M103.289702,616.561687 C103.289702,616.905839 103.590388,617.206538 103.934525,617.206538 C104.278662,617.206538 104.579347,616.905839 104.579347,616.561687 L104.579347,615.271984 C104.579347,614.927832 104.278662,614.627133 103.934525,614.627133 C103.590388,614.627133 103.289702,614.927832 103.289702,615.271984 L103.289702,616.561687 L103.289702,616.561687 Z M103.289702,612.437073 C103.289702,612.781225 103.590388,613.081924 103.934525,613.081924 C104.278662,613.081924 104.579347,612.781225 104.579347,612.437073 L104.579347,611.147371 C104.579347,610.803218 104.278662,610.50252 103.934525,610.50252 C103.590388,610.50252 103.289702,610.803218 103.289702,611.147371 L103.289702,612.437073 L103.289702,612.437073 Z M103.289702,620.6863 C103.289702,621.030452 103.590388,621.331151 103.934525,621.331151 C104.278662,621.331151 104.579347,621.030452 104.579347,620.6863 L104.579347,619.396598 C104.579347,619.052446 104.278662,618.751747 103.934525,618.751747 C103.590388,618.751747 103.289702,619.052446 103.289702,619.396598 L103.289702,620.6863 L103.289702,620.6863 Z M103.934525,608.913857 C104.287173,608.905599 104.57109,608.62167 104.579347,608.269006 L104.579347,606.979304 C104.535896,606.635151 104.278662,606.377906 103.934525,606.377906 C103.590388,606.377906 103.289702,606.678605 103.289702,607.022757 L103.289702,608.312459 C103.289702,608.656612 103.546936,608.913857 103.934525,608.913857 Z M103.289702,624.810914 C103.289702,625.155066 103.590388,625.455765 103.934525,625.455765 C104.278662,625.455765 104.579347,625.155066 104.579347,624.810914 L104.579347,623.521211 C104.579347,623.177059 104.278662,622.87636 103.934525,622.87636 C103.590388,622.87636 103.289702,623.177059 103.289702,623.521211 L103.289702,624.810914 Z M103.289702,628.935527 C103.289702,629.321395 103.546936,629.580378 103.934525,629.580378 C104.287173,629.57212 104.57109,629.288191 104.579347,628.935527 L104.579347,627.645825 C104.579347,627.301673 104.278662,627.000974 103.934525,627.000974 C103.590388,627.000974 103.289702,627.301673 103.289702,627.645825 L103.289702,628.935527 L103.289702,628.935527 Z M139.422366,616.561687 C139.422366,616.905839 139.723052,617.206538 140.067189,617.206538 C140.411326,617.206538 140.712012,616.905839 140.712012,616.561687 L140.712012,615.271984 C140.712012,614.927832 140.411326,614.627133 140.067189,614.627133 C139.723052,614.627133 139.422366,614.927832 139.422366,615.271984 L139.422366,616.561687 Z M139.422366,612.437073 C139.422366,612.781225 139.723052,613.081924 140.067189,613.081924 C140.411326,613.081924 140.712012,612.781225 140.712012,612.437073 L140.712012,611.147371 C140.712012,610.803218 140.411326,610.50252 140.067189,610.50252 C139.723052,610.50252 139.422366,610.803218 139.422366,611.147371 L139.422366,612.437073 Z M139.422366,620.6863 C139.422366,621.030452 139.723052,621.331151 140.067189,621.331151 C140.411326,621.331151 140.712012,621.030452 140.712012,620.6863 L140.712012,619.396598 C140.712012,619.052446 140.411326,618.751747 140.067189,618.751747 C139.723052,618.751747 139.422366,619.052446 139.422366,619.396598 L139.422366,620.6863 Z M140.023737,608.913857 C140.376386,608.905599 140.660302,608.62167 140.66856,608.269006 L140.66856,606.979304 C140.66856,606.635151 140.367874,606.334453 140.023737,606.334453 C139.6796,606.334453 139.378915,606.635151 139.378915,606.979304 L139.378915,608.269006 C139.422366,608.654874 139.6796,608.913857 140.023737,608.913857 L140.023737,608.913857 Z M139.422366,624.810914 C139.422366,625.155066 139.723052,625.455765 140.067189,625.455765 C140.411326,625.455765 140.712012,625.155066 140.712012,624.810914 L140.712012,623.521211 C140.712012,623.177059 140.411326,622.87636 140.067189,622.87636 C139.723052,622.87636 139.422366,623.177059 139.422366,623.521211 L139.422366,624.810914 Z M139.422366,628.935527 C139.422366,629.27968 139.723052,629.580378 140.067189,629.580378 C140.411326,629.580378 140.712012,629.27968 140.712012,628.935527 L140.712012,627.645825 C140.712012,627.301673 140.411326,627.000974 140.067189,627.000974 C139.723052,627.000974 139.422366,627.301673 139.422366,627.645825 L139.422366,628.935527 Z M120.560869,635.424015 L119.271223,635.424015 C118.927086,635.424015 118.626401,635.724714 118.626401,636.068867 C118.626401,636.413019 118.927086,636.713718 119.271223,636.713718 L120.560869,636.713718 C120.905006,636.713718 121.205691,636.413019 121.205691,636.068867 C121.205691,635.724714 120.905006,635.424015 120.560869,635.424015 Z M116.436437,635.424015 L115.146792,635.424015 C114.802655,635.424015 114.501969,635.724714 114.501969,636.068867 C114.501969,636.413019 114.802655,636.713718 115.146792,636.713718 L116.436437,636.713718 C116.780574,636.713718 117.08126,636.413019 117.08126,636.068867 C117.08126,635.724714 116.780574,635.424015 116.436437,635.424015 Z M124.685301,635.424015 L123.395655,635.424015 C123.051518,635.424015 122.750833,635.724714 122.750833,636.068867 C122.750833,636.413019 123.051518,636.713718 123.395655,636.713718 L124.685301,636.713718 C125.029438,636.713718 125.330123,636.413019 125.330123,636.068867 C125.330123,635.724714 125.029438,635.424015 124.685301,635.424015 Z M112.268554,635.424015 L110.978908,635.424015 C110.634771,635.424015 110.334086,635.724714 110.334086,636.068867 C110.334086,636.413019 110.634771,636.713718 110.978908,636.713718 L112.268554,636.713718 C112.612691,636.713718 112.913376,636.413019 112.913376,636.068867 C112.913376,635.724714 112.656142,635.424015 112.268554,635.424015 L112.268554,635.424015 Z M108.187574,634.994694 L106.254844,634.994694 L106.254844,634.393297 C106.257213,634.210189 106.185403,634.033912 106.055758,633.904589 C105.926112,633.775265 105.749662,633.703897 105.566569,633.70673 L104.535896,633.70673 L104.535896,631.643554 C104.535896,631.257686 104.23521,630.956988 103.891073,630.956988 C103.546936,630.956988 103.246251,631.257686 103.246251,631.643554 L103.246251,633.70673 L102.688331,633.70673 C102.505382,633.70438 102.329213,633.775904 102.199674,633.905121 C102.070135,634.034339 101.99817,634.210333 102.000057,634.393297 L102.000057,637.271662 C101.997687,637.454769 102.069498,637.631046 102.199143,637.76037 C102.328788,637.889693 102.505238,637.961061 102.688331,637.958228 L105.566569,637.958228 C105.749519,637.960578 105.925687,637.889055 106.055226,637.759837 C106.184765,637.630619 106.25673,637.454625 106.254844,637.271662 L106.254844,636.670264 L108.187574,636.670264 C108.573424,636.585095 108.875848,636.240943 108.875848,635.89679 C108.875848,635.510923 108.187574,634.994694 108.187574,634.994694 L108.187574,634.994694 Z M128.809732,635.424015 L127.520087,635.424015 C127.17595,635.424015 126.875264,635.724714 126.875264,636.068867 C126.875264,636.413019 127.17595,636.713718 127.520087,636.713718 L128.809732,636.713718 C129.153869,636.713718 129.454555,636.413019 129.454555,636.068867 C129.454555,635.724714 129.153869,635.424015 128.809732,635.424015 Z M132.934164,635.424015 L131.644519,635.424015 C131.300382,635.424015 130.999696,635.724714 130.999696,636.068867 C130.999696,636.413019 131.300382,636.713718 131.644519,636.713718 L132.934164,636.713718 C133.278301,636.713718 133.578987,636.413019 133.578987,636.068867 C133.578987,635.724714 133.321753,635.424015 132.934164,635.424015 Z M119.272962,600.536007 L120.562607,600.536007 C120.906744,600.536007 121.207429,600.235308 121.207429,599.891156 C121.207429,599.547004 120.906744,599.246305 120.562607,599.246305 L119.272962,599.246305 C118.928824,599.246305 118.628139,599.547004 118.628139,599.891156 C118.628139,600.235308 118.928824,600.536007 119.272962,600.536007 Z M115.14853,600.536007 L116.438175,600.536007 C116.782312,600.536007 117.082998,600.235308 117.082998,599.891156 C117.082998,599.547004 116.782312,599.246305 116.438175,599.246305 L115.14853,599.246305 C114.804393,599.246305 114.503707,599.547004 114.503707,599.891156 C114.503707,600.235308 114.804393,600.536007 115.14853,600.536007 Z M123.397393,600.536007 L124.687039,600.536007 C125.031176,600.536007 125.331861,600.235308 125.331861,599.891156 C125.331861,599.547004 125.031176,599.246305 124.687039,599.246305 L123.397393,599.246305 C123.053256,599.246305 122.752571,599.547004 122.752571,599.891156 C122.752571,600.235308 123.053256,600.536007 123.397393,600.536007 Z M111.024098,600.536007 L112.313743,600.536007 C112.65788,600.536007 112.958566,600.235308 112.958566,599.891156 C112.958566,599.547004 112.65788,599.246305 112.313743,599.246305 L111.024098,599.246305 C110.638247,599.289759 110.379275,599.547004 110.379275,599.93461 C110.379275,600.322216 110.636509,600.536007 111.024098,600.536007 L111.024098,600.536007 Z M108.144122,599.289759 L106.211392,599.289759 L106.211392,598.688361 C106.213751,598.505098 106.141994,598.328651 106.012403,598.199054 C105.882811,598.069457 105.706372,597.997697 105.523118,598.000056 L102.688331,598.000056 C102.505077,597.997697 102.328637,598.069457 102.199046,598.199054 C102.069455,598.328651 101.997698,598.505098 102.000057,598.688361 L102.000057,601.566726 C102.000057,601.952594 102.300742,602.255031 102.688331,602.255031 L103.289702,602.255031 L103.289702,604.187846 C103.374867,604.573714 103.719005,604.87615 104.063142,604.87615 C104.407279,604.87615 104.965198,604.187846 104.965198,604.187846 L104.965198,602.255031 L105.566569,602.255031 C105.749824,602.25739 105.926263,602.18563 106.055854,602.056033 C106.185446,601.926436 106.257202,601.749989 106.254844,601.566726 L106.254844,600.536007 L108.187574,600.536007 C108.540222,600.527749 108.824138,600.24382 108.832396,599.891156 C108.799413,599.53954 108.496969,599.275272 108.144122,599.289759 L108.144122,599.289759 Z M127.521825,600.536007 L128.81147,600.536007 C129.155608,600.536007 129.456293,600.235308 129.456293,599.891156 C129.456293,599.547004 129.155608,599.246305 128.81147,599.246305 L127.521825,599.246305 C127.177688,599.246305 126.877002,599.547004 126.877002,599.891156 C126.877002,600.235308 127.177688,600.536007 127.521825,600.536007 L127.521825,600.536007 Z M131.689708,600.536007 L132.979354,600.536007 C133.323491,600.536007 133.580725,600.278762 133.580725,599.93461 C133.580725,599.590457 133.280039,599.289759 132.935902,599.289759 L131.646257,599.289759 C131.30212,599.289759 131.001434,599.590457 131.001434,599.93461 C131.001434,600.278762 131.30212,600.536007 131.68797,600.536007 L131.689708,600.536007 Z M141.269931,598.001795 L138.391693,598.001795 C138.208593,597.999425 138.032324,598.071238 137.903006,598.200889 C137.773688,598.33054 137.702324,598.506998 137.705157,598.690099 L137.705157,599.291497 L135.772427,599.291497 C135.386576,599.376666 135.08589,599.720818 135.08589,600.06497 C135.08589,600.409123 135.772427,600.967067 135.772427,600.967067 L137.705157,600.967067 L137.705157,601.568464 C137.705157,601.954332 138.005842,602.256769 138.391693,602.256769 L139.422366,602.256769 L139.422366,604.319945 C139.422366,604.705812 139.723052,605.008249 140.067189,605.008249 C140.411326,605.008249 140.712012,604.707551 140.712012,604.319945 L140.712012,602.256769 L141.313383,602.256769 C141.496482,602.259138 141.672751,602.187325 141.802069,602.057674 C141.931387,601.928023 142.002751,601.751565 141.999919,601.568464 L141.999919,598.690099 C141.969624,598.307152 141.65398,598.009532 141.269931,598.001795 L141.269931,598.001795 Z M141.269931,633.704992 L140.66856,633.704992 L140.66856,631.772177 C140.583395,631.386309 140.239257,631.08561 139.89512,631.08561 C139.50927,631.08561 138.993064,631.772177 138.993064,631.772177 L138.993064,633.704992 L138.391693,633.704992 C138.208899,633.702633 138.032902,633.77421 137.903637,633.903481 C137.774371,634.032752 137.702798,634.208757 137.705157,634.391558 L137.705157,635.422277 L135.772427,635.422277 C135.428289,635.422277 135.127604,635.722976 135.127604,636.067128 C135.127604,636.411281 135.428289,636.711979 135.772427,636.711979 L137.705157,636.711979 L137.705157,637.313377 C137.702798,637.496179 137.774371,637.672184 137.903637,637.801455 C138.032902,637.930726 138.208899,638.002303 138.391693,637.999943 L141.269931,637.999943 C141.452725,638.002303 141.628722,637.930726 141.757987,637.801455 C141.887253,637.672184 141.958826,637.496179 141.956467,637.313377 L141.956467,634.435012 C141.956467,634.005691 141.655782,633.704992 141.269931,633.704992 L141.269931,633.704992 Z" id="icon-text"></path>
        </g>
    </g>
</svg>